HIERARCHY
ROOT Hips
{
	OFFSET -3.958830 18.904000 13.208200
	CHANNELS 6 Xposition Yposition Zposition Zrotation Yrotation Xrotation 
	JOINT LHipJoint
	{
		OFFSET 0.000000 0.000000 0.000000
		CHANNELS 3 Zrotation Yrotation Xrotation
		JOINT LeftUpLeg
		{
			OFFSET 1.800000 -1.400000 0.085000
			CHANNELS 3 Zrotation Yrotation Xrotation
			JOINT LeftLeg
			{
				OFFSET 2.215000 -6.000000 0.000000
				CHANNELS 3 Zrotation Yrotation Xrotation
				JOINT LeftFoot
				{
					OFFSET 2.500000 -6.900000 0.000000
					CHANNELS 3 Zrotation Yrotation Xrotation
					JOINT LeftToeBase
					{
						OFFSET 0.200000 -0.500000 1.950000
						CHANNELS 3 Zrotation Yrotation Xrotation
						End Site
						{
							OFFSET 0.000000 0.000000 0.000000
						}
					}
				}
			}
		}
	}
	JOINT RHipJoint
	{
		OFFSET 0.000000 0.000000 0.000000
		CHANNELS 3 Zrotation Yrotation Xrotation
		JOINT RightUpLeg
		{
			OFFSET -1.800000 -1.400000 0.085000
			CHANNELS 3 Zrotation Yrotation Xrotation
			JOINT RightLeg
			{
				OFFSET -2.215000 -6.000000 0.000000
				CHANNELS 3 Zrotation Yrotation Xrotation
				JOINT RightFoot
				{
					OFFSET -2.500000 -6.900000 0.000000
					CHANNELS 3 Zrotation Yrotation Xrotation
					JOINT RightToeBase
					{
						OFFSET -0.200000 -0.500000 1.950000
						CHANNELS 3 Zrotation Yrotation Xrotation
						End Site
						{
							OFFSET 0.000000 0.000000 0.000000
						}
					}
				}
			}
		}
	}
	JOINT LowerBack
	{
		OFFSET 0.000000 0.000000 0.000000
		CHANNELS 3 Zrotation Yrotation Xrotation
		JOINT Spine
		{
			OFFSET -0.087000 1.940000 -0.288900
			CHANNELS 3 Zrotation Yrotation Xrotation
			JOINT Spine1
			{
				OFFSET 0.000000 1.950000 0.060000
				CHANNELS 3 Zrotation Yrotation Xrotation
				JOINT Neck
				{
					OFFSET 0.000000 0.000000 0.000000
					CHANNELS 3 Zrotation Yrotation Xrotation
					JOINT Neck1
					{
						OFFSET 0.000000 1.600000 0.340000
						CHANNELS 3 Zrotation Yrotation Xrotation
						JOINT Head
						{
							OFFSET 0.000000 1.667000 -0.240000
							CHANNELS 3 Zrotation Yrotation Xrotation
							End Site
							{
								OFFSET 0.000000 0.000000 0.000000
							}
						}
					}
				}
				JOINT LeftShoulder
				{
					OFFSET 0.000000 0.000000 0.000000
					CHANNELS 3 Zrotation Yrotation Xrotation
					JOINT LeftArm
					{
						OFFSET 2.700000 1.550000 -0.730000
						CHANNELS 3 Zrotation Yrotation Xrotation
						JOINT LeftForeArm
						{
							OFFSET 5.450000 0.000000 0.000000
							CHANNELS 3 Zrotation Yrotation Xrotation
							JOINT LeftHand
							{
								OFFSET 3.450000 0.000000 0.000000
								CHANNELS 3 Zrotation Yrotation Xrotation
								JOINT LeftHandIndex1
								{
									OFFSET 0.750000 0.000000 0.000000
									CHANNELS 3 Zrotation Yrotation Xrotation
									End Site
									{
										OFFSET 0.000000 0.000000 0.000000
									}
								}
							}
						}
					}
				}
				JOINT RightShoulder
				{
					OFFSET 0.000000 0.000000 0.000000
					CHANNELS 3 Zrotation Yrotation Xrotation
					JOINT RightArm
					{
						OFFSET -2.700000 1.550000 -0.730000
						CHANNELS 3 Zrotation Yrotation Xrotation
						JOINT RightForeArm
						{
							OFFSET -5.450000 0.000000 0.000000
							CHANNELS 3 Zrotation Yrotation Xrotation
							JOINT RightHand
							{
								OFFSET -3.450000 0.000000 0.000000
								CHANNELS 3 Zrotation Yrotation Xrotation
								JOINT RightHandIndex1
								{
									OFFSET -0.750000 0.000000 0.000000
									CHANNELS 3 Zrotation Yrotation Xrotation
									End Site
									{
										OFFSET 0.000000 0.000000 0.000000
									}
								}
							}
						}
					}
				}
			}
		}
	}
}
MOTION
Frames: 6
Frame Time: 0.016667
1.566620 18.713620 -0.441180 -5.658678 8.646861 -15.396705 -15.196579 12.037443 4.460036 1.687125 -8.279660 -36.737329 1.613733 11.533890 62.215774 0.487448 10.555018 0.491355 0.744040 0.522850 0.733340 18.364228 -9.856803 2.931721 -12.412329 6.978956 -3.831110 28.045783 -20.791245 41.253086 -1.994528 -9.107041 1.043475 0.214700 -0.492120 0.043270 -3.840568 -1.806934 -8.567371 13.115724 1.485809 42.075948 -8.315075 9.906117 5.815090 4.257609 -8.014576 -18.806085 -43.630116 28.745402 54.108151 -6.052720 6.053940 -27.222410 -21.021722 -21.344845 5.674959 -45.470401 -13.680684 -9.692280 -44.962260 -45.573098 11.081129 -2.972316 3.068144 1.112550 -0.623740 0.575730 -0.041880 13.027755 30.155891 13.578945 42.901354 4.882698 -14.975038 90.860173 51.738684 33.132075 2.516229 -1.460654 -0.085640 0.312120 -0.054610 -0.328870 
1.577650 18.744360 -0.473300 -4.880550 9.732710 -15.659842 -15.244856 11.805180 4.693513 -0.323323 -9.565901 -38.211375 1.720679 11.814848 64.420981 0.508865 11.009235 0.358605 0.725640 0.478750 0.765630 18.363593 -9.701644 2.926855 -12.249080 7.053760 -2.731640 29.674210 -21.710790 41.209190 -2.076453 -9.293494 0.994230 0.219180 -0.475660 0.034210 -3.773495 -1.825216 -8.675862 11.834602 2.123642 43.082232 -7.838015 10.422830 6.032196 4.025494 -7.787245 -18.663818 -42.951207 28.866750 55.474347 -6.704820 6.239950 -29.198880 -20.420431 -21.788564 5.513839 -45.392919 -14.602623 -9.608519 -47.658077 -45.767504 12.074105 -3.019931 2.969434 1.184460 -0.621360 0.584300 -0.068860 12.779596 30.663335 13.474527 44.343328 6.075411 -15.343266 89.385936 51.971645 32.253806 2.484985 -1.370933 -0.151400 0.385450 -0.015040 -0.372390 
1.622480 18.855760 -0.563620 -3.612278 12.283906 -15.848273 -15.366146 11.337252 5.187482 -4.579596 -12.042022 -42.114790 2.877702 12.251732 70.086734 0.658098 11.996474 0.024597 0.746020 0.467980 0.868760 18.354715 -9.295347 2.961699 -10.573151 7.704755 -1.500164 33.178985 -22.947786 40.609995 -2.226870 -9.487868 0.902702 0.234840 -0.565090 0.028180 -3.579441 -1.913003 -8.939885 9.469400 3.702916 45.690073 -7.161071 11.984902 6.360800 4.274573 -7.221285 -19.053630 -41.954701 28.710786 59.749024 -9.156980 5.516080 -33.170670 -20.783322 -23.716292 5.387555 -45.740262 -16.163012 -10.036310 -50.979539 -46.690901 13.457811 -2.996580 2.884464 1.299290 -0.685250 0.650150 -0.137640 12.624839 33.337124 14.051654 48.180681 8.231124 -16.755934 90.410617 56.378741 35.447739 2.555824 -1.209553 -0.191440 0.422390 0.010770 -0.445850 
1.705510 18.932500 -0.641070 -1.949779 14.494527 -14.376794 -15.439495 10.716709 5.716977 -10.987403 -14.763273 -47.285911 6.478187 10.910409 75.524474 0.762778 12.743290 -0.206718 0.714600 0.394320 0.891200 18.405636 -8.894998 3.042137 -9.562892 9.044751 -1.601843 37.893021 -23.308767 38.195527 -2.261735 -9.482543 0.873579 0.235300 -0.568940 0.009910 -3.521073 -1.680215 -9.247797 8.231430 5.602869 46.800156 -7.287231 13.682387 5.995905 4.229438 -7.048100 -19.440539 -40.825556 28.019145 63.002651 -9.081090 4.247270 -33.841340 -21.638395 -24.886120 5.164906 -45.853703 -16.395251 -10.036531 -57.051784 -46.790544 15.895182 -3.029115 2.837121 1.369620 -0.704750 0.641130 -0.185350 13.610784 35.564949 14.544313 50.676672 10.770790 -16.792735 93.794245 59.805306 39.991015 2.639207 -1.043196 -0.262880 0.463590 0.065550 -0.494270 
1.760750 18.976350 -0.715750 0.830150 17.373122 -12.357960 -15.550768 10.209827 6.309651 -18.449724 -17.979852 -52.565148 9.953975 9.397015 81.366804 0.982533 13.566336 -0.426468 0.709490 0.388950 0.876510 18.415299 -8.550503 2.947354 -8.136385 9.544511 -0.922294 39.105415 -20.617065 33.602293 -2.105408 -8.873660 1.043824 0.252650 -0.556640 0.009100 -3.330246 -1.641506 -9.502030 4.985973 8.102385 47.848631 -6.374716 14.747092 6.199217 3.804061 -7.565633 -18.915379 -39.546951 26.217357 62.892670 -8.958850 2.679670 -34.108340 -21.267035 -24.677898 4.633181 -45.900939 -16.719009 -10.160493 -66.041732 -46.501098 19.376836 -3.076882 2.887963 1.354020 -0.693660 0.615260 -0.191880 13.949535 36.866855 14.361360 50.179829 14.470258 -15.871571 101.771787 60.934411 46.879754 2.713514 -0.956742 -0.274600 0.464550 0.081510 -0.493360 
1.826310 18.957270 -0.797260 4.108364 20.548562 -9.409598 -15.736934 9.726061 7.132788 -25.974038 -23.106536 -58.023967 14.435466 5.867383 86.724077 1.176865 14.210600 -0.573489 0.708400 0.373180 0.861660 18.387120 -8.162228 2.626135 -6.753762 8.651660 -1.450510 36.103355 -17.151080 29.650493 -1.843164 -7.957849 1.301529 0.260270 -0.527180 0.030110 -2.932211 -1.986081 -9.726174 0.331820 10.323855 47.592014 -3.919391 14.424653 7.431223 3.120182 -8.378350 -18.245846 -38.765006 24.553961 60.224963 -9.061170 1.530160 -33.706120 -18.344008 -24.302412 4.902957 -48.885140 -16.789339 -11.381117 -72.406622 -47.461975 21.797395 -3.111262 2.985356 1.324680 -0.671800 0.582170 -0.180130 12.403081 37.779474 14.048148 51.309007 17.929072 -15.582238 110.710899 60.745263 54.231178 2.763815 -0.930131 -0.277640 0.447260 0.089860 -0.483230 
